<?xml version="1.0" standalone="no"?>
<!DOCTYPE svg PUBLIC "-//W3C//DTD SVG 20010904//EN"
 "http://www.w3.org/TR/2001/REC-SVG-20010904/DTD/svg10.dtd">
<svg version="1.0" xmlns="http://www.w3.org/2000/svg"
 width="88.000000pt" height="88.000000pt" viewBox="0 0 88.000000 88.000000"
 preserveAspectRatio="xMidYMid meet">

<g transform="translate(0.000000,88.000000) scale(0.100000,-0.100000)"
fill="#000000" stroke="none">
<path d="M125 870 c-3 -5 -3 -201 1 -434 5 -319 10 -426 19 -430 7 -2 34 11
61 30 27 20 103 65 169 101 66 37 145 83 175 103 30 20 91 58 135 85 78 47
104 69 105 90 0 6 -44 42 -97 80 -142 100 -399 287 -466 340 -57 44 -90 55
-102 35z"/>
</g>
</svg>
