<?xml version="1.0" standalone="no"?>
<!DOCTYPE svg PUBLIC "-//W3C//DTD SVG 20010904//EN"
 "http://www.w3.org/TR/2001/REC-SVG-20010904/DTD/svg10.dtd">
<svg version="1.0" xmlns="http://www.w3.org/2000/svg"
 width="85.000000pt" height="85.000000pt" viewBox="0 0 85.000000 85.000000"
 preserveAspectRatio="xMidYMid meet">

<g transform="translate(0.000000,85.000000) scale(0.100000,-0.100000)"
fill="#000000" stroke="none">
<path d="M676 781 l-47 -48 52 -64 c52 -63 68 -79 80 -79 12 0 89 85 89 98 0
15 -106 142 -119 142 -4 0 -28 -22 -55 -49z"/>
<path d="M470 604 c-52 -52 -126 -119 -165 -148 -38 -30 -97 -79 -130 -109
l-60 -55 31 -34 c17 -18 45 -52 63 -76 18 -23 41 -42 51 -42 9 0 35 16 56 36
22 20 77 68 124 107 47 39 127 113 179 163 l95 91 -34 52 c-38 60 -86 111
-103 111 -7 0 -55 -43 -107 -96z"/>
<path d="M69 240 c-8 -5 -20 -26 -27 -47 -6 -21 -18 -61 -26 -90 -16 -52 -13
-83 8 -83 31 1 171 59 174 73 2 8 -14 35 -35 61 -21 25 -47 57 -58 71 -15 18
-24 22 -36 15z"/>
</g>
</svg>
