<?xml version="1.0" standalone="no"?>
<!DOCTYPE svg PUBLIC "-//W3C//DTD SVG 20010904//EN"
 "http://www.w3.org/TR/2001/REC-SVG-20010904/DTD/svg10.dtd">
<svg version="1.0" xmlns="http://www.w3.org/2000/svg"
 width="71.000000pt" height="71.000000pt" viewBox="0 0 71.000000 71.000000"
 preserveAspectRatio="xMidYMid meet">

<g transform="translate(0.000000,71.000000) scale(0.100000,-0.100000)"
fill="#000000" stroke="none">
<path d="M25 679 c-14 -18 -25 -37 -23 -43 2 -7 62 -67 135 -135 l132 -124
-69 -76 c-37 -42 -98 -105 -134 -141 -36 -35 -66 -69 -66 -75 0 -15 73 -85 88
-85 6 0 17 10 23 22 13 25 121 140 204 219 l56 53 90 -90 c49 -49 109 -113
132 -141 23 -29 47 -53 53 -53 18 0 64 55 64 77 0 13 -25 45 -67 85 -66 62
-77 73 -156 156 l-41 43 70 67 c89 86 174 181 174 196 0 13 -55 76 -67 76 -4
0 -63 -56 -129 -125 -67 -69 -127 -125 -135 -125 -7 0 -51 37 -98 83 -109 105
-183 167 -198 167 -6 0 -23 -14 -38 -31z"/>
</g>
</svg>
