<?xml version="1.0" standalone="no"?>
<!DOCTYPE svg PUBLIC "-//W3C//DTD SVG 20010904//EN"
 "http://www.w3.org/TR/2001/REC-SVG-20010904/DTD/svg10.dtd">
<svg version="1.0" xmlns="http://www.w3.org/2000/svg"
 width="82.000000pt" height="82.000000pt" viewBox="0 0 82.000000 82.000000"
 preserveAspectRatio="xMidYMid meet">

<g transform="translate(0.000000,82.000000) scale(0.100000,-0.100000)"
fill="#000000" stroke="none">
<path d="M14 415 c4 -220 11 -402 14 -405 4 -3 180 -3 392 0 l385 5 3 385 c1
212 -1 390 -6 397 -5 9 -112 13 -401 15 l-394 3 7 -400z m745 -5 l-4 -350
-341 0 -341 0 -6 248 c-4 136 -7 293 -7 350 l0 102 351 0 351 0 -3 -350z"/>
<path d="M389 653 c-4 -23 2 -288 8 -353 l6 -75 -82 74 c-76 69 -111 84 -111
49 0 -19 213 -228 231 -228 9 0 21 12 28 26 13 29 60 89 109 141 36 38 38 45
17 63 -13 11 -22 7 -53 -27 -20 -22 -49 -55 -63 -74 l-26 -33 -7 189 c-7 206
-14 248 -39 253 -9 2 -18 0 -18 -5z"/>
</g>
</svg>
