<?xml version="1.0" standalone="no"?>
<!DOCTYPE svg PUBLIC "-//W3C//DTD SVG 20010904//EN"
 "http://www.w3.org/TR/2001/REC-SVG-20010904/DTD/svg10.dtd">
<svg version="1.0" xmlns="http://www.w3.org/2000/svg"
 width="76.000000pt" height="76.000000pt" viewBox="0 0 76.000000 76.000000"
 preserveAspectRatio="xMidYMid meet">

<g transform="translate(0.000000,76.000000) scale(0.100000,-0.100000)"
fill="#000000" stroke="none">
<path d="M17 712 c-13 -14 -15 -46 -12 -197 1 -99 6 -240 10 -312 l8 -133 31
-4 c17 -3 83 -8 146 -11 63 -3 201 -12 305 -21 230 -20 240 -17 248 53 3 26 1
88 -3 138 -5 49 -12 153 -16 229 l-7 140 -51 63 -51 63 -110 1 c-60 0 -194 3
-296 5 -167 3 -188 2 -202 -14z m103 -38 l32 -7 -4 -91 -3 -91 155 -6 c85 -3
184 -9 220 -13 87 -10 93 -4 88 109 l-3 86 35 -42 36 -41 12 -207 c7 -113 12
-227 12 -253 0 -57 14 -55 -195 -33 -77 8 -206 18 -287 21 l-146 7 -6 151 c-3
83 -7 211 -10 284 -4 146 -7 140 64 126z m434 -20 c3 -9 6 -45 6 -81 0 -63 -1
-65 -22 -58 -13 3 -94 9 -180 12 l-158 6 0 68 0 69 174 0 c149 0 175 -2 180
-16z"/>
<path d="M166 409 c-6 -18 -17 -144 -16 -187 1 -73 9 -76 240 -88 74 -4 141
-11 148 -17 26 -21 34 11 35 142 2 107 -1 133 -13 141 -8 5 -82 10 -165 10
-82 0 -167 3 -187 6 -27 5 -39 3 -42 -7z m358 -136 c-4 -49 -8 -90 -10 -92 -5
-6 -303 15 -310 21 -3 3 -2 40 2 82 l7 76 159 0 159 0 -7 -87z"/>
<path d="M270 308 c0 -11 17 -17 68 -21 106 -11 132 -9 132 8 0 9 -9 15 -23
15 -13 0 -58 3 -100 6 -65 6 -77 5 -77 -8z"/>
<path d="M270 247 c0 -17 189 -41 204 -26 15 14 2 20 -65 29 -93 14 -139 13
-139 -3z"/>
<path d="M413 653 c-8 -2 -13 -22 -13 -44 0 -44 9 -51 68 -53 34 -1 36 1 44
39 7 33 6 42 -9 52 -17 13 -66 16 -90 6z"/>
</g>
</svg>
