<?xml version="1.0" standalone="no"?>
<!DOCTYPE svg PUBLIC "-//W3C//DTD SVG 20010904//EN"
 "http://www.w3.org/TR/2001/REC-SVG-20010904/DTD/svg10.dtd">
<svg version="1.0" xmlns="http://www.w3.org/2000/svg"
 width="73.000000pt" height="73.000000pt" viewBox="0 0 73.000000 73.000000"
 preserveAspectRatio="xMidYMid meet">

<g transform="translate(0.000000,73.000000) scale(0.100000,-0.100000)"
fill="#000000" stroke="none">
<path d="M343 700 c-15 -6 -23 -18 -23 -34 0 -37 -54 -51 -63 -16 -11 41 -64
38 -116 -5 -27 -23 -29 -29 -19 -56 13 -39 -13 -73 -49 -64 -18 4 -27 -1 -43
-27 -11 -18 -20 -50 -20 -70 0 -32 4 -39 25 -44 36 -9 36 -59 0 -68 -28 -7
-30 -22 -12 -85 16 -51 35 -65 70 -52 38 15 55 -9 38 -55 -15 -41 -11 -49 39
-74 52 -26 68 -25 76 5 9 35 51 35 60 0 6 -26 20 -33 69 -35 71 -4 75 -2 75
35 0 28 4 35 20 35 10 0 24 -9 30 -20 6 -11 20 -20 31 -20 20 0 109 47 109 58
0 3 -7 14 -16 24 -14 14 -14 20 -4 33 7 9 21 13 30 10 42 -13 70 33 70 118 0
34 -2 37 -29 37 -23 0 -30 5 -33 23 -2 17 4 25 27 33 34 12 41 39 30 111 -7
46 -24 55 -65 33 -29 -16 -46 12 -25 44 21 31 13 56 -25 85 -29 21 -70 22 -70
2 0 -4 -6 -15 -13 -25 -17 -24 -44 -11 -52 26 -4 16 -12 31 -18 33 -34 10 -85
13 -104 5z m140 -107 c68 -19 112 -57 126 -111 6 -20 13 -80 17 -133 8 -107
-6 -153 -55 -188 -70 -50 -268 -68 -340 -31 -166 84 -190 338 -43 435 68 45
193 57 295 28z"/>
<path d="M271 566 c-142 -47 -188 -232 -85 -346 62 -68 191 -105 281 -81 149
40 180 336 44 415 -44 26 -177 32 -240 12z m182 -60 c54 -23 80 -59 85 -120 6
-75 -4 -120 -34 -156 -25 -29 -28 -30 -112 -30 -85 0 -88 1 -137 38 -42 32
-52 46 -64 89 -17 63 -10 94 32 139 25 27 44 37 82 43 76 13 113 12 148 -3z"/>
</g>
</svg>
